<svg width="78" height="16" viewBox="0 0 78 16" fill="none" xmlns="http://www.w3.org/2000/svg">
<path d="M69.6311 4.05245C67.4815 4.05245 65.7196 5.81437 65.7196 7.96391C65.7196 10.1135 67.4815 11.8754 69.6311 11.8754C71.7806 11.8754 73.5425 10.1135 73.5425 7.96391C73.5425 5.81437 71.8158 4.05245 69.6311 4.05245ZM69.6311 10.5363C68.2215 10.5363 67.0939 9.40868 67.0939 7.99915C67.0939 6.58961 68.2215 5.46198 69.6311 5.46198C71.0406 5.46198 72.1682 6.58961 72.1682 7.99915C72.2035 9.37344 71.0406 10.5363 69.6311 10.5363ZM74.6349 3.91149C74.6349 4.40483 74.212 4.82769 73.7187 4.82769C73.2254 4.82769 72.8025 4.40483 72.8025 3.91149C72.8025 3.41816 73.2254 2.9953 73.7187 2.9953C74.212 2.9953 74.6349 3.41816 74.6349 3.91149ZM77.2073 4.82769C77.1721 4.01721 77.0311 3.45339 76.8549 2.96006C76.6435 2.46672 76.3968 2.04386 75.974 1.621C75.5511 1.19814 75.1282 0.95147 74.6349 0.740039C74.1416 0.563847 73.613 0.422894 72.7673 0.387655C71.992 0.352417 71.7101 0.352417 69.6311 0.352417C67.552 0.352417 67.3053 0.352417 66.4948 0.387655C65.6844 0.422894 65.1205 0.563847 64.6272 0.740039C64.1339 0.95147 63.711 1.19814 63.2881 1.621C62.8653 2.04386 62.6186 2.46672 62.4072 2.9953C62.231 3.48863 62.09 4.05245 62.0548 4.86293C62.0196 5.63818 62.0196 5.92008 62.0196 7.96391C62.0196 10.043 62.0196 10.2896 62.0548 11.1001C62.09 11.9106 62.231 12.4744 62.4072 12.9678C62.6186 13.4611 62.8653 13.884 63.2881 14.3068C63.711 14.7297 64.1339 14.9763 64.6272 15.1878C65.1205 15.364 65.6491 15.5049 66.4948 15.5402C67.3053 15.5754 67.552 15.5754 69.6311 15.5754C71.7101 15.5754 71.9568 15.5754 72.7673 15.5402C73.5778 15.5049 74.1416 15.364 74.6349 15.1878C75.1282 14.9763 75.5511 14.7297 75.974 14.3068C76.3968 13.884 76.6435 13.4611 76.8549 12.9678C77.0311 12.4744 77.1721 11.9106 77.2073 11.1001C77.2425 10.2896 77.2425 10.043 77.2425 7.96391C77.2778 5.92008 77.2778 5.63817 77.2073 4.82769ZM75.8682 11.0649C75.833 11.8049 75.7273 12.2278 75.6216 12.4744C75.4806 12.8268 75.3044 13.0735 75.0578 13.3554C74.7759 13.6373 74.5292 13.7782 74.1768 13.9192C73.8949 14.0249 73.5073 14.1306 72.7673 14.1659C71.9568 14.2011 71.7101 14.2011 69.7015 14.2011C67.6577 14.2011 67.411 14.2011 66.6358 14.1659C65.8958 14.1306 65.4729 14.0249 65.2263 13.9192C64.8739 13.7782 64.6272 13.6021 64.3453 13.3554C64.0634 13.0735 63.9224 12.8268 63.7815 12.4744C63.6758 12.1925 63.5701 11.8049 63.5348 11.0649C63.4996 10.2544 63.4996 10.0077 63.4996 7.99915C63.4996 5.95532 63.4996 5.70865 63.5348 4.93341C63.5701 4.1934 63.6758 3.77054 63.7815 3.52387C63.9224 3.17149 64.0986 2.92482 64.3453 2.64291C64.6272 2.361 64.8739 2.22005 65.2263 2.0791C65.5082 1.97338 65.8958 1.86767 66.6358 1.83243C67.4463 1.79719 67.6929 1.79719 69.7015 1.79719C71.7454 1.79719 71.992 1.79719 72.7673 1.83243C73.5073 1.86767 73.9301 1.97338 74.1768 2.0791C74.5292 2.22005 74.7759 2.39624 75.0578 2.64291C75.3397 2.92482 75.4806 3.17149 75.6216 3.52387C75.7273 3.80578 75.833 4.1934 75.8682 4.93341C75.9035 5.74389 75.9035 5.99056 75.9035 7.99915C75.9035 10.0077 75.9035 10.2544 75.8682 11.0649Z" fill="white"/>
<path d="M44.1185 4.65144C44.1185 4.7924 44.1185 4.96859 44.1185 5.10954C44.1185 9.90196 40.4537 15.4696 33.7584 15.4696C31.7145 15.4696 29.8117 14.8706 28.1907 13.8487C28.4726 13.8839 28.7545 13.8839 29.0717 13.8839C30.7631 13.8839 32.3488 13.3201 33.5822 12.3334C31.9964 12.2982 30.6574 11.241 30.1993 9.79625C30.4107 9.83149 30.6222 9.86672 30.8688 9.86672C31.186 9.86672 31.5384 9.83149 31.8203 9.72577C30.1641 9.40863 28.8955 7.92861 28.8955 6.16669V6.13146C29.3888 6.41336 29.9526 6.55432 30.5517 6.58955C29.565 5.92003 28.9307 4.82764 28.9307 3.55905C28.9307 2.88952 29.1069 2.25523 29.424 1.72666C31.2212 3.91144 33.8993 5.39145 36.9298 5.5324C36.8593 5.2505 36.8241 5.00383 36.8241 4.68668C36.8241 2.67809 38.4451 1.05713 40.4537 1.05713C41.5108 1.05713 42.4622 1.51523 43.0965 2.22C43.9423 2.0438 44.7175 1.7619 45.4223 1.33904C45.1404 2.18476 44.5766 2.88952 43.8365 3.34762C44.5766 3.27715 45.2813 3.06572 45.9156 2.78381C45.4223 3.48858 44.8232 4.12287 44.1185 4.65144Z" fill="white"/>
<path d="M8.31626 2.64288H6.80101C5.6029 2.64288 5.39147 3.20669 5.39147 4.01718V5.84957H8.21054L7.85816 8.70388H5.39147V15.9982H2.46669V8.70388H0V5.84957H2.46669V3.73527C2.46669 1.33906 3.9467 0 6.13148 0C7.18863 0 8.06959 0.0704768 8.31626 0.105715V2.64288Z" fill="white"/>
</svg>
