<svg width="95" height="37" viewBox="0 0 95 37" fill="none" xmlns="http://www.w3.org/2000/svg">
<path d="M26.9357 21.8941C25.4882 25.3239 22.0789 27.7505 18.1285 27.7505C12.8523 27.7505 8.57722 23.4531 8.57722 18.1795C8.57722 12.8925 12.8658 8.60857 18.1285 8.60857C22.1871 8.60857 25.6505 11.1572 27.044 14.7497H29.9526C28.4645 9.61176 23.7294 5.84302 18.1285 5.84302C11.3371 5.84302 5.81736 11.3741 5.81736 18.1795C5.81736 24.985 11.3371 30.5161 18.1285 30.5161C23.6212 30.5161 28.2886 26.8964 29.8715 21.9076H26.9357V21.8941Z" fill="#484848"/>
<path d="M33.2401 18.0439C33.2401 26.4625 26.4081 33.3222 17.9932 33.3222C9.59188 33.3222 2.74634 26.4761 2.74634 18.0439C2.74634 9.6252 9.57835 2.76555 17.9932 2.76555C26.4081 2.76555 33.2401 9.61164 33.2401 18.0439ZM36 18.0439C36 8.0933 27.9233 0 18.0068 0C8.07666 0 0 8.0933 0 18.0439C0 27.9944 8.07666 36.0877 18.0068 36.0877C27.9233 36.0742 36 27.9809 36 18.0439Z" fill="#484848"/>
<path fill-rule="evenodd" clip-rule="evenodd" d="M18.0068 11.5908C14.3811 11.5908 11.4318 14.5462 11.4318 18.1793C11.4318 21.8125 14.3811 24.7679 18.0068 24.7679C21.6325 24.7679 24.5817 21.8125 24.5817 18.1793C24.5682 14.5326 21.6325 11.5908 18.0068 11.5908ZM17.6415 21.9481C16.9245 21.9481 16.2074 21.7583 15.4363 21.4465L15.5039 19.6299H16.0992C16.3833 20.2806 16.9921 20.6602 17.6415 20.6602C18.2097 20.6602 18.575 20.3348 18.575 19.9417C18.575 19.3317 17.9256 19.1419 17.0868 18.7758C16.018 18.3013 15.4769 17.61 15.4769 16.7423C15.4769 15.5087 16.4104 14.6546 18.0879 14.6546C18.7373 14.6546 19.3461 14.8037 20.0225 15.0613V16.8101H19.4002C19.062 16.2001 18.575 15.8747 18.0473 15.8747C17.5738 15.8747 17.2492 16.173 17.2492 16.5254C17.2492 17.1626 17.9797 17.3659 19.1838 17.9218C19.9278 18.2742 20.4284 18.9656 20.4284 19.7248C20.4149 20.9856 19.3461 21.9481 17.6415 21.9481Z" fill="#484848"/>
<path d="M51.4534 10.304H54.7212C57.1254 10.304 58.1758 11.6138 58.1758 14.7246C58.1758 17.7185 56.9854 19.4026 55.2114 19.4026H53.6708V25.6477H51.4534V10.304ZM54.5345 17.2273C55.6316 17.2273 55.9117 16.5724 55.9117 14.7948C55.9117 13.0873 55.5849 12.526 54.4645 12.526H53.6708V17.2273H54.5345Z" fill="#484848"/>
<path d="M51.4534 10.304H54.7212C57.1254 10.304 58.1758 11.6138 58.1758 14.7246C58.1758 17.7185 56.9854 19.4026 55.2114 19.4026H53.6708V25.6477H51.4534V10.304ZM54.5345 17.2273C55.6316 17.2273 55.9117 16.5724 55.9117 14.7948C55.9117 13.0873 55.5849 12.526 54.4645 12.526H53.6708V17.2273H54.5345Z" fill="#484848"/>
<path d="M63.8945 10C65.9019 10 67.2324 11.4502 67.2324 13.9295V21.7885C67.2324 24.5017 65.9719 25.9752 63.8012 25.9752C61.607 25.9752 60.3933 24.5251 60.3933 21.7183V13.8593C60.3933 11.4736 61.6771 10 63.8945 10ZM64.9449 13.6956C64.9449 12.6197 64.5481 12.1051 63.8012 12.1051C63.0542 12.1051 62.6574 12.6197 62.6574 13.6956V22.2563C62.6574 23.3322 63.0542 23.8702 63.8012 23.8702C64.5481 23.8702 64.9449 23.3322 64.9449 22.2563V13.6956Z" fill="#484848"/>
<path d="M63.8945 10C65.9019 10 67.2324 11.4502 67.2324 13.9295V21.7885C67.2324 24.5017 65.9719 25.9752 63.8012 25.9752C61.607 25.9752 60.3933 24.5251 60.3933 21.7183V13.8593C60.3933 11.4736 61.6771 10 63.8945 10ZM64.9449 13.6956C64.9449 12.6197 64.5481 12.1051 63.8012 12.1051C63.0542 12.1051 62.6574 12.6197 62.6574 13.6956V22.2563C62.6574 23.3322 63.0542 23.8702 63.8012 23.8702C64.5481 23.8702 64.9449 23.3322 64.9449 22.2563V13.6956Z" fill="#484848"/>
<path d="M69.5199 10.304H76.359V12.526H74.0482V25.6477H71.8307V12.526H69.5199V10.304Z" fill="#484848"/>
<path d="M69.5199 10.304H76.359V12.526H74.0482V25.6477H71.8307V12.526H69.5199V10.304Z" fill="#484848"/>
<path d="M44.1708 21.4156C44.2408 22.9593 44.7076 23.7078 45.6413 23.7078C46.4583 23.7078 46.9951 23.123 46.9951 22.2342C46.9951 20.9478 46.1782 20.1759 44.9877 18.9129C43.3772 17.2054 42.2334 15.9424 42.2334 13.9075C42.2334 11.6854 43.7973 10.0715 45.6646 10.0715C47.5086 10.0715 48.8158 11.4749 48.9792 13.8841L46.8084 14.2115C46.7384 12.8783 46.4116 12.2936 45.5946 12.2936C44.8944 12.2936 44.4042 12.8315 44.4042 13.697C44.4042 15.0769 45.3612 16.0125 46.6217 17.3224C48.1389 18.9129 49.0959 20.059 49.0959 22.1874C49.0959 24.4563 47.6254 26 45.6646 26C43.4939 26 42.0934 24.4563 42 21.7664L44.1708 21.4156Z" fill="#484848"/>
<path d="M44.1708 21.4156C44.2408 22.9593 44.7076 23.7078 45.6413 23.7078C46.4583 23.7078 46.9951 23.123 46.9951 22.2342C46.9951 20.9478 46.1782 20.1759 44.9877 18.9129C43.3772 17.2054 42.2334 15.9424 42.2334 13.9075C42.2334 11.6854 43.7973 10.0715 45.6646 10.0715C47.5086 10.0715 48.8158 11.4749 48.9792 13.8841L46.8084 14.2115C46.7384 12.8783 46.4116 12.2936 45.5946 12.2936C44.8944 12.2936 44.4042 12.8315 44.4042 13.697C44.4042 15.0769 45.3612 16.0125 46.6217 17.3224C48.1389 18.9129 49.0959 20.059 49.0959 22.1874C49.0959 24.4563 47.6254 26 45.6646 26C43.4939 26 42.0934 24.4563 42 21.7664L44.1708 21.4156Z" fill="#484848"/>
<path d="M91.3911 10C93.3985 10 94.7289 11.4502 94.7289 13.9295V21.7885C94.7289 24.5017 93.4685 25.9752 91.2977 25.9752C89.1036 25.9752 87.8898 24.5251 87.8898 21.7183V13.8593C87.9131 11.4736 89.1969 10 91.3911 10ZM92.4414 13.6956C92.4414 12.6197 92.0446 12.1051 91.2977 12.1051C90.5508 12.1051 90.154 12.6197 90.154 13.6956V22.2563C90.154 23.3322 90.5508 23.8702 91.2977 23.8702C92.0446 23.8702 92.4414 23.3322 92.4414 22.2563V13.6956Z" fill="#484848"/>
<path d="M91.3911 10C93.3985 10 94.7289 11.4502 94.7289 13.9295V21.7885C94.7289 24.5017 93.4685 25.9752 91.2977 25.9752C89.1036 25.9752 87.8898 24.5251 87.8898 21.7183V13.8593C87.9131 11.4736 89.1969 10 91.3911 10ZM92.4414 13.6956C92.4414 12.6197 92.0446 12.1051 91.2977 12.1051C90.5508 12.1051 90.154 12.6197 90.154 13.6956V22.2563C90.154 23.3322 90.5508 23.8702 91.2977 23.8702C92.0446 23.8702 92.4414 23.3322 92.4414 22.2563V13.6956Z" fill="#484848"/>
<path d="M78.7866 13.8593C78.7866 11.4736 80.0703 10 82.2645 10C84.2719 10 85.6023 11.4502 85.6023 13.9295V15.403H83.3148V13.719C83.3148 12.6431 82.918 12.1285 82.1711 12.1285C81.4242 12.1285 81.0274 12.6431 81.0274 13.719V22.2796C81.0274 23.3556 81.4242 23.8935 82.1711 23.8935C82.918 23.8935 83.3148 23.3556 83.3148 22.2796V20.198H85.6023V21.8118C85.6023 24.5251 84.3419 25.9986 82.1711 25.9986C79.9303 25.9986 78.7632 24.5485 78.7632 21.7417V13.8593H78.7866Z" fill="#484848"/>
<path d="M78.7866 13.8593C78.7866 11.4736 80.0703 10 82.2645 10C84.2719 10 85.6023 11.4502 85.6023 13.9295V15.403H83.3148V13.719C83.3148 12.6431 82.918 12.1285 82.1711 12.1285C81.4242 12.1285 81.0274 12.6431 81.0274 13.719V22.2796C81.0274 23.3556 81.4242 23.8935 82.1711 23.8935C82.918 23.8935 83.3148 23.3556 83.3148 22.2796V20.198H85.6023V21.8118C85.6023 24.5251 84.3419 25.9986 82.1711 25.9986C79.9303 25.9986 78.7632 24.5485 78.7632 21.7417V13.8593H78.7866Z" fill="#484848"/>
</svg>
